<svg xmlns="http://www.w3.org/2000/svg" width="60" height="62.500" viewBox="0 0 60 62.500" fill="none">
  <path d="M 55 0 L 5 0 C 3.674 0 2.402 0.527 1.464 1.464 C 0.527 2.402 0 3.674 0 5 L 0 22.5 C 0 38.975 7.975 48.959 14.666 54.434 C 21.872 60.328 29.041 62.331 29.353 62.412 C 29.783 62.529 30.236 62.529 30.666 62.412 C 30.978 62.331 38.138 60.328 45.353 54.434 C 52.025 48.959 60 38.975 60 22.5 L 60 5 C 60 3.674 59.473 2.402 58.536 1.464 C 57.598 0.527 56.326 0 55 0 Z M 55 22.5 C 55 34.084 50.731 43.487 42.313 50.444 C 38.648 53.462 34.48 55.81 30 57.381 C 25.579 55.837 21.462 53.531 17.838 50.566 C 9.319 43.597 5 34.156 5 22.5 L 5 5 L 55 5 L 55 22.5 Z" fill="currentColor" fill-rule="nonzero"/>
</svg>
