<svg xmlns="http://www.w3.org/2000/svg" width="70" height="60" viewBox="0 0 70 60" fill="none">
  <path d="M 69.822 31.563 L 59.822 6.563 C 59.602 6.012 59.193 5.557 58.669 5.28 C 58.144 5.003 57.538 4.922 56.959 5.05 L 37.5 9.375 L 37.5 2.5 C 37.5 1.837 37.237 1.201 36.768 0.732 C 36.299 0.263 35.663 0 35 0 C 34.337 0 33.701 0.263 33.232 0.732 C 32.763 1.201 32.5 1.837 32.5 2.5 L 32.5 10.494 L 11.956 15.059 C 11.56 15.147 11.191 15.329 10.882 15.591 C 10.572 15.853 10.33 16.186 10.178 16.563 L 10.178 16.581 L 0.178 41.563 C 0.059 41.86 -0.002 42.179 0 42.5 C 0 49.784 7.669 52.5 12.5 52.5 C 17.331 52.5 25 49.784 25 42.5 C 25.002 42.179 24.942 41.86 24.822 41.563 L 15.913 19.303 L 32.5 15.625 L 32.5 55 L 27.5 55 C 26.837 55 26.201 55.263 25.732 55.732 C 25.263 56.201 25 56.837 25 57.5 C 25 58.163 25.263 58.799 25.732 59.268 C 26.201 59.737 26.837 60 27.5 60 L 42.5 60 C 43.163 60 43.799 59.737 44.268 59.268 C 44.737 58.799 45 58.163 45 57.5 C 45 56.837 44.737 56.201 44.268 55.732 C 43.799 55.263 43.163 55 42.5 55 L 37.5 55 L 37.5 14.506 L 53.438 10.969 L 45.178 31.563 C 45.059 31.86 44.998 32.179 45 32.5 C 45 39.784 52.669 42.5 57.5 42.5 C 62.331 42.5 70 39.784 70 32.5 C 70.002 32.179 69.942 31.86 69.822 31.563 Z M 12.5 47.5 C 10.147 47.5 5.388 46.372 5.022 42.925 L 12.5 24.231 L 19.978 42.925 C 19.613 46.372 14.853 47.5 12.5 47.5 Z M 57.5 37.5 C 55.147 37.5 50.388 36.372 50.022 32.925 L 57.5 14.231 L 64.978 32.925 C 64.613 36.372 59.853 37.5 57.5 37.5 Z" fill="currentColor" fill-rule="nonzero"/>
</svg>
